# xmcd
#
# Track frame offsets: 
#        150
#        22188
#        45888
#        67778
#        90808
#        113605
#        137175
#        154690
#        172335
#        190485
#
# Disc length: 2797 seconds
#
# Revision: 0
# Processed by: cddbd v1.5.2PL0 Copyright (c) Steve Scherf et al.
# Submitted via: ExactAudioCopy v1.0b3
#
DISCID=7a0aeb0a
DTITLE=Various Artist - Ai Kho Vi Ai
DYEAR=1990
DGENRE=
TTITLE0=Huong Lan - Ai kho vi ai
TTITLE1=Giao Linh - Chuyen do vi tuyen
TTITLE2=Huong Lan - Go cua (Mot lan ghe tham)
TTITLE3=Giao Linh - Han Tha La
TTITLE4=Nhu Mai - Nang chieu
TTITLE5=Giao Linh - Noi lai tinh xua
TTITLE6=Huong Lan - Mot thuo yeu anh
TTITLE7=Giao Linh - Mai lo minh xa nhau
TTITLE8=Huong Lan - Tuoi hoc tro
TTITLE9=Nhu Mai - Mua thu cho em
EXTD=
EXTT0=
EXTT1=
EXTT2=
EXTT3=
EXTT4=
EXTT5=
EXTT6=
EXTT7=
EXTT8=
EXTT9=
PLAYORDER=
